PathFileType	4	(X/Y/Z)	output.trc
DataRate	CameraRate	NumFrames	NumMarkers	Units	OrigDataRate	OrigDataStartFrame	OrigNumFrames
250.00	250.00	5	36	m	250.00	1134	2266
Frame#	Time	LPSIS_X	LPSIS_Y	LPSIS_Z	LASIS_X	LASIS_Y	LASIS_Z	LTH1_X	LTH1_Y	LTH1_Z	LTH2_X	LTH2_Y	LTH2_Z	LTH3_X	LTH3_Y	LTH3_Z	LTH4_X	LTH4_Y	LTH4_Z	LLFE_X	LLFE_Y	LLFE_Z	LMFE_X	LMFE_Y	LMFE_Z	LSH1_X	LSH1_Y	LSH1_Z	LSH2_X	LSH2_Y	LSH2_Z	LSH3_X	LSH3_Y	LSH3_Z	LSH4_X	LSH4_Y	LSH4_Z	LLMAL_X	LLMAL_Y	LLMAL_Z	LMMAL_X	LMMAL_Y	LMMAL_Z	LCAL_X	LCAL_Y	LCAL_Z	LMTP5_X	LMTP5_Y	LMTP5_Z	LTOE_X	LTOE_Y	LTOE_Z	LMTP1_X	LMTP1_Y	LMTP1_Z	RPSIS_X	RPSIS_Y	RPSIS_Z	RASIS_X	RASIS_Y	RASIS_Z	RTH1_X	RTH1_Y	RTH1_Z	RTH2_X	RTH2_Y	RTH2_Z	RTH3_X	RTH3_Y	RTH3_Z	RTH4_X	RTH4_Y	RTH4_Z	RLFE_X	RLFE_Y	RLFE_Z	RMFE_X	RMFE_Y	RMFE_Z	RSH1_X	RSH1_Y	RSH1_Z	RSH2_X	RSH2_Y	RSH2_Z	RSH3_X	RSH3_Y	RSH3_Z	RSH4_X	RSH4_Y	RSH4_Z	RLMAL_X	RLMAL_Y	RLMAL_Z	RMMAL_X	RMMAL_Y	RMMAL_Z	RCAL_X	RCAL_Y	RCAL_Z	RMTP1_X	RMTP1_Y	RMTP1_Z	RTOE_X	RTOE_Y	RTOE_Z	RMTP5_X	RMTP5_Y	RMTP5_Z

1134	4.53200	1631.83728	283.53909	991.69720	1801.49792	358.70880	971.62848	1785.32983	400.56073	765.65759	1817.66711	400.38504	693.46716	1849.82898	389.84485	625.66742	1889.85181	381.48843	728.55756	nan	nan	nan	1869.23975	248.30788	500.69763	1737.14160	387.27145	410.15106	nan	nan	nan	1767.19055	375.79587	383.66821	1731.15332	372.68314	355.21445	1556.19446	348.10489	277.25409	1587.73621	276.28046	263.58310	1475.14624	302.16907	289.25348	1559.22705	378.54562	128.93341	1596.64880	323.99814	84.84772	1565.85327	273.87799	101.14178	1634.26392	183.17328	1005.88580	1795.22949	105.61230	978.71179	1771.74365	49.94859	820.54163	1783.65051	56.27302	742.44269	1793.33044	68.70295	661.70209	1852.27271	91.84557	755.39099	1802.35559	110.38447	486.95804	1793.57642	222.15129	502.02368	1719.38757	110.23090	312.09717	1741.97766	110.92814	260.20334	1780.17322	112.00803	306.09396	1770.53088	116.65396	264.58762	1689.61743	166.02907	96.69814	1722.99963	242.78494	106.22967	1639.13220	220.62393	46.79797	1851.16174	227.15964	36.32662	1870.79797	175.28423	48.20969	1816.24609	121.48045	36.08956
1135	4.53600	1636.67236	283.59470	992.76141	1806.53137	358.02579	973.12634	1792.07092	400.16013	767.23529	1824.74854	399.91681	695.19531	1857.65894	389.14655	627.72974	1897.27014	380.47266	731.10345	nan	nan	nan	1877.38818	247.31487	503.30658	1746.89392	386.24850	410.46338	nan	nan	nan	1777.52673	374.63901	384.43777	1742.86548	372.17920	355.76334	1567.83521	347.35388	274.96371	1599.64502	275.58252	261.97552	1486.27856	301.55728	285.09399	1574.26404	378.16934	127.10773	1613.05359	323.71317	84.14622	1581.67493	273.60287	99.42371	1639.25769	183.35669	1006.49884	1799.45093	104.96331	979.33289	1774.37109	49.67485	821.00574	1785.85413	56.01463	742.76868	1794.94458	68.47044	662.03906	1856.29614	90.93848	755.49341	1802.64978	110.29771	487.18198	1794.29211	222.07504	502.12753	1719.43933	110.29871	312.47076	1741.88318	110.90940	260.58270	1780.15356	111.88560	306.35611	1770.52612	116.57762	264.84607	1689.69250	166.11064	96.96487	1723.06311	242.86357	106.37239	1639.18787	220.62982	46.96416	1851.10925	227.13164	36.27221	1870.78040	175.25294	48.20408	1816.23071	121.46983	36.12018
1136	4.54000	1641.48254	283.89417	993.98157	1811.73718	357.25867	974.53247	1797.65698	399.69040	768.46893	nan	nan	nan	1865.68579	388.27185	629.92395	1903.58765	379.68381	733.33234	nan	nan	nan	1885.59009	246.31496	505.88272	1756.68066	385.22491	410.65744	nan	nan	nan	1787.68201	373.44986	385.20645	1752.48621	370.49875	355.54044	1579.53577	346.53159	272.71021	1611.56458	274.89978	260.31934	1497.39551	300.79520	280.77628	1589.44812	377.80188	125.20801	1630.00085	323.57626	83.48651	1597.65967	273.26843	97.46243	1643.23877	183.26736	1007.67963	1803.52136	104.40077	979.79822	1777.64331	49.48642	821.48199	1788.03455	55.77684	743.07172	1796.92139	68.32030	662.32959	1858.70581	90.35387	755.19470	1803.07690	110.22943	487.33713	1795.22607	222.04192	502.23380	1719.52441	110.37451	312.79877	1741.85840	110.96002	260.85788	1780.22461	111.82751	306.58231	1770.51733	116.54453	265.04398	1689.75708	166.20856	97.24419	1723.18591	242.95985	106.49963	1639.24268	220.65845	47.09847	1851.13745	227.14366	36.23236	1870.78528	175.27098	48.18732	1816.26465	121.49005	36.13642
1137	4.54400	1646.30713	284.03995	995.06964	1816.73413	356.56485	975.89001	nan	nan	nan	nan	nan	nan	1873.32092	387.62106	632.06750	1910.37207	378.76776	735.78723	nan	nan	nan	1893.49780	245.36401	508.35446	1766.50134	384.20993	410.76736	nan	nan	nan	1797.86975	372.39493	385.90851	1763.13330	369.44489	355.65442	1591.39612	345.83557	270.35944	1623.83472	274.16476	258.45557	1508.87366	299.99261	276.26056	1604.78052	377.30585	123.30083	1646.40564	323.26312	82.41543	1613.93372	272.96783	95.57378	1648.25098	183.51842	1008.33386	1807.66382	103.78056	980.27142	1780.45911	49.35653	821.88953	1790.65186	55.75217	743.36047	1798.20996	68.23219	662.48138	1861.16211	89.69208	754.94604	1803.28735	110.24743	487.48990	1796.91882	221.84399	502.29633	1719.71655	110.36575	313.11581	1741.83154	110.98547	261.12259	1780.35339	111.84265	306.81577	1770.57776	116.56149	265.24460	1689.81982	166.33762	97.51284	1723.77930	243.31308	106.62438	1639.29468	220.71178	47.31503	1851.17078	227.15936	36.18808	1870.81677	175.29254	48.16618	1816.30774	121.51263	36.16252
1138	4.54800	1651.19141	284.30960	996.17505	1821.75244	355.86023	977.26105	nan	nan	nan	1846.09351	398.24365	700.86316	1881.19373	386.89304	634.15216	1917.07227	377.83945	738.17773	nan	nan	nan	1901.44202	244.51283	510.72415	1776.25879	383.28998	410.77280	nan	nan	nan	1808.23572	371.36206	386.52707	1773.87793	368.34836	355.65176	1603.37134	345.02252	267.61926	1635.72461	273.26157	256.41217	1520.33337	299.12381	271.45618	1620.27771	376.89502	121.24510	1662.85059	322.95148	81.34370	1630.04468	272.55112	93.60762	1652.81970	183.59564	1009.13446	1811.70203	103.17385	980.57544	1783.21423	49.15312	822.25543	1793.41516	55.61742	743.54388	nan	nan	nan	1862.20398	89.32903	754.45349	1803.49902	110.31441	487.63412	1797.89099	221.80153	502.43579	1719.83948	110.41659	313.37552	1741.89087	111.00675	261.32343	1780.53088	111.86245	306.97769	1770.45325	116.73140	265.44678	1689.89563	166.46861	97.75513	1723.87354	243.47032	106.70418	1640.08899	221.24384	47.15226	1851.22449	227.19853	36.15656	1870.78748	175.31480	48.11152	1816.33533	121.55487	36.17744
